<?xml version="1.0" encoding="iso-8859-1"?>
<!-- Generator: Adobe Illustrator 18.1.1, SVG Export Plug-In . SVG Version: 6.00 Build 0)  -->
<svg version="1.1" xmlns="http://www.w3.org/2000/svg" xmlns:xlink="http://www.w3.org/1999/xlink" x="0px" y="0px"
	 viewBox="0 0 27.969 27.969" style="enable-background:new 0 0 27.969 27.969;" xml:space="preserve">
<g id="Layer_1_1_">
	<path style="fill-rule:evenodd;clip-rule:evenodd;fill:none;" d="M23.87,23.873c-5.464,5.461-14.324,5.461-19.788,0
		c-5.464-5.461-5.464-14.316,0-19.777c5.464-5.461,14.324-5.461,19.788,0C29.335,9.557,29.335,18.412,23.87,23.873z M22.434,5.505
		c-4.679-4.676-12.264-4.676-16.943,0c-4.678,4.676-4.679,12.257,0,16.933c1.042,1.041,2.233,1.837,3.499,2.415v-5.887
		c0-0.55,0.446-0.997,0.996-0.997h0.007c0.55,0,0.996,0.446,0.996,0.997v6.592c0.657,0.168,1.326,0.258,1.998,0.314V14.984
		c0-0.544,0.44-0.984,0.983-0.984H14c0.543,0,0.983,0.441,0.983,0.984v10.885c0.672-0.056,1.341-0.168,1.998-0.335V10.997
		c0-0.55,0.446-0.997,0.996-0.997h0.007c0.55,0,0.996,0.446,0.996,0.997v13.835c1.251-0.569,2.424-1.364,3.455-2.394
		C27.113,17.762,27.113,10.181,22.434,5.505z"/>
</g>
<g id="Layer_1">
</g>
</svg>
