<?xml version="1.0" encoding="utf-8"?>
<!-- Generator: Adobe Illustrator 15.0.0, SVG Export Plug-In . SVG Version: 6.00 Build 0)  -->
<!DOCTYPE svg PUBLIC "-//W3C//DTD SVG 1.1//EN" "http://www.w3.org/Graphics/SVG/1.1/DTD/svg11.dtd">
<svg version="1.1" id="Layer_1" xmlns="http://www.w3.org/2000/svg" xmlns:xlink="http://www.w3.org/1999/xlink" x="0px" y="0px"
	 width="40px" height="40px" viewBox="0 0 40 40" enable-background="new 0 0 40 40" xml:space="preserve">
<path fill="none" d="M36.643,18.071v2.857H32.27c-0.272,2.479-1.281,4.717-2.756,6.563l3.117,3.118l-2.02,2.021l-3.119-3.118
	c-1.848,1.479-4.086,2.485-6.562,2.762v4.369h-2.858v-4.369c-2.479-0.275-4.717-1.282-6.564-2.762L8.389,32.63l-2.02-2.021
	l3.119-3.118c-1.478-1.847-2.483-4.087-2.757-6.563H2.357v-2.857H6.73c0.274-2.477,1.281-4.717,2.757-6.564L6.369,8.389l2.02-2.02
	l3.119,3.117c1.847-1.477,4.085-2.484,6.564-2.759v-4.37h2.858v4.37c2.479,0.274,4.717,1.282,6.562,2.76l3.119-3.119l2.02,2.02
	l-3.117,3.119c1.475,1.848,2.482,4.087,2.756,6.564H36.643z M35.215,23.785h-0.607c-0.336,1.188-0.801,2.316-1.391,3.371
	l0.426,0.426c1.676,1.672,1.676,4.387,0,6.061c-1.674,1.676-4.387,1.676-6.061,0l-0.426-0.426c-1.055,0.59-2.186,1.055-3.371,1.391
	v0.607c0,2.367-1.918,4.285-4.285,4.285s-4.286-1.918-4.286-4.285v-0.607c-1.186-0.336-2.316-0.801-3.37-1.391l-0.426,0.426
	c-1.673,1.676-4.387,1.676-6.062,0c-1.674-1.674-1.674-4.387,0-6.061l0.426-0.426c-0.59-1.055-1.054-2.186-1.39-3.371H3.786
	c-2.368,0-4.286-1.918-4.286-4.285s1.918-4.286,4.286-4.286h0.607c0.335-1.186,0.801-2.316,1.39-3.37l-0.424-0.426
	c-1.674-1.673-1.674-4.387,0-6.062c1.674-1.675,4.387-1.674,6.062,0l0.426,0.426c1.053-0.59,2.183-1.054,3.369-1.39V3.786
	C15.214,1.418,17.133-0.5,19.5-0.5s4.285,1.918,4.285,4.286v0.607c1.188,0.335,2.316,0.801,3.371,1.39l0.426-0.426
	c1.672-1.674,4.387-1.674,6.061,0c1.676,1.674,1.676,4.387,0,6.062l-0.426,0.426c0.59,1.054,1.055,2.184,1.391,3.37h0.607
	c2.367-0.001,4.285,1.918,4.285,4.285S37.582,23.785,35.215,23.785z"/>
<path fill="none" d="M19.5,10.929c4.734,0,8.57,3.837,8.57,8.571c0,4.734-3.836,8.57-8.57,8.57c-4.734,0-8.571-3.836-8.571-8.57
	C10.929,14.766,14.766,10.929,19.5,10.929z M19.5,13.786c3.156,0,5.715,2.559,5.715,5.714c0,3.156-2.559,5.715-5.715,5.715
	s-5.714-2.559-5.714-5.715S16.344,13.786,19.5,13.786z"/>
<g id="Layer_1_2_">
</g>
</svg>
