<?xml version="1.0" encoding="UTF-8" standalone="no"?>
<svg width="28px" height="28px" viewBox="0 0 28 28" version="1.1" xmlns="http://www.w3.org/2000/svg" xmlns:xlink="http://www.w3.org/1999/xlink" xmlns:sketch="http://www.bohemiancoding.com/sketch/ns">
    <!-- Generator: Sketch 3.2.2 (9983) - http://www.bohemiancoding.com/sketch -->
    <title>checkbox+</title>
    <desc>Created with Sketch.</desc>
    <defs></defs>
    <g id="Page-1" stroke="none" stroke-width="1" fill="none" fill-rule="evenodd" sketch:type="MSPage">
        <path d="M12.8729685,18.8603707 C13.1782344,18.908961 13.5008133,18.8147674 13.7360672,18.5795135 L23.0867016,9.22887918 C23.4823844,8.8331963 23.4763107,8.20610504 23.0857864,7.81558075 C22.6925395,7.42233379 22.0625069,7.42464674 21.672488,7.81466562 L12.8786797,16.608474 L8.95381931,12.6836136 C8.55938485,12.2891792 7.92561989,12.2885792 7.53509559,12.6791035 C7.14184864,13.0723504 7.14659057,13.704812 7.53960574,14.0978272 L12.0158668,18.5740883 C12.2506847,18.8089062 12.5703251,18.904143 12.8729685,18.8603707 Z M0,3.99683887 C0,1.78944571 1.79412025,0 3.99683887,0 L24.0031611,0 C26.2105543,0 28,1.79412025 28,3.99683887 L28,24.0031611 C28,26.2105543 26.2058797,28 24.0031611,28 L3.99683887,28 C1.78944571,28 0,26.2058797 0,24.0031611 L0,3.99683887 Z M2,4.00494659 C2,2.89764516 2.89702623,2 4.00494659,2 L23.9950534,2 C25.1023548,2 26,2.89702623 26,4.00494659 L26,23.9950534 C26,25.1023548 25.1029738,26 23.9950534,26 L4.00494659,26 C2.89764516,26 2,25.1029738 2,23.9950534 L2,4.00494659 Z" id="checkbox+" fill="#FF0000" sketch:type="MSShapeGroup"></path>
    </g>
</svg>