<?xml version="1.0" encoding="UTF-8" standalone="no"?>
<svg width="42px" height="42px" viewBox="0 0 42 42" version="1.1" xmlns="http://www.w3.org/2000/svg" xmlns:xlink="http://www.w3.org/1999/xlink" xmlns:sketch="http://www.bohemiancoding.com/sketch/ns">
    <!-- Generator: Sketch 3.2.2 (9983) - http://www.bohemiancoding.com/sketch -->
    <title>close</title>
    <desc>Created with Sketch.</desc>
    <defs></defs>
    <g id="Page-1" stroke="none" stroke-width="1" fill="none" fill-rule="evenodd" sketch:type="MSPage">
        <path d="M22.6325753,20.9480231 L27.5978666,25.9133143 C28.0137557,26.3292035 28.0093814,26.9906186 27.5987349,27.4012651 C27.1852255,27.8147745 26.5219102,27.8115228 26.1107842,27.4003968 L21.0019322,22.2915448 L15.8913475,27.4021295 C15.4753469,27.8181301 14.8138438,27.8138438 14.4031973,27.4031973 C13.9896879,26.9896879 13.9930289,26.3262832 14.4042651,25.915047 L19.3712891,20.9480231 L14.4508754,16.0276093 C14.0426031,15.6193371 14.0416648,14.9583352 14.4551742,14.5448258 C14.8658207,14.1341793 15.5249555,14.1275246 15.9379578,14.5405269 L21.0019322,19.6045013 L26.0641739,14.5422596 C26.472336,14.1340975 27.1332485,14.1332485 27.546758,14.546758 C27.9574044,14.9574044 27.9641472,15.6164512 27.5512563,16.029342 L22.6325753,20.9480231 Z M21,42 C32.5979797,42 42,32.5979797 42,21 C42,9.40202025 32.5979797,0 21,0 C9.40202025,0 0,9.40202025 0,21 C0,32.5979797 9.40202025,42 21,42 Z M21,40 C31.4934102,40 40,31.4934102 40,21 C40,10.5065898 31.4934102,2 21,2 C10.5065898,2 2,10.5065898 2,21 C2,31.4934102 10.5065898,40 21,40 Z" id="close" fill="#FF0000" sketch:type="MSShapeGroup"></path>
    </g>
</svg>