<?xml version="1.0" encoding="UTF-8" standalone="no"?>
<svg width="28px" height="28px" viewBox="0 0 28 28" version="1.1" xmlns="http://www.w3.org/2000/svg" xmlns:xlink="http://www.w3.org/1999/xlink" xmlns:sketch="http://www.bohemiancoding.com/sketch/ns">
    <!-- Generator: Sketch 3.2.2 (9983) - http://www.bohemiancoding.com/sketch -->
    <title>delete</title>
    <desc>Created with Sketch.</desc>
    <defs></defs>
    <g id="Page-1" stroke="none" stroke-width="1" fill="none" fill-rule="evenodd" sketch:type="MSPage">
        <path d="M15.6325753,13.9480231 L19.0958325,17.4112802 C19.5106191,17.8260668 19.5093814,18.4906186 19.0987349,18.9012651 C18.6852255,19.3147745 18.0209995,19.3106121 17.60875,18.8983626 L14.0019322,15.2915448 L10.3934348,18.9000422 C9.97850777,19.3149692 9.31384375,19.3138438 8.90319728,18.9031973 C8.48968786,18.4896879 8.49396338,17.8253488 8.90635234,17.4129598 L12.3712891,13.9480231 L8.95153421,10.5282682 C8.54289807,10.119632 8.54166481,9.45833519 8.95517423,9.04482577 C9.3658207,8.6341793 10.0358036,8.63837266 10.4386166,9.04118575 L14.0019322,12.6045013 L17.5635682,9.04286534 C17.9720648,8.6343687 18.6332485,8.63324853 19.046758,9.04675796 C19.4574044,9.45740443 19.4533261,10.1272722 19.0506506,10.5299478 L15.6325753,13.9480231 Z M14,28 C21.7319865,28 28,21.7319865 28,14 C28,6.2680135 21.7319865,0 14,0 C6.2680135,0 0,6.2680135 0,14 C0,21.7319865 6.2680135,28 14,28 Z M14,26 C20.627417,26 26,20.627417 26,14 C26,7.372583 20.627417,2 14,2 C7.372583,2 2,7.372583 2,14 C2,20.627417 7.372583,26 14,26 Z" id="delete" fill="#FF0000" sketch:type="MSShapeGroup"></path>
    </g>
</svg>