<?xml version="1.0" encoding="UTF-8" standalone="no"?>
<svg width="28px" height="28px" viewBox="0 0 28 28" version="1.1" xmlns="http://www.w3.org/2000/svg" xmlns:xlink="http://www.w3.org/1999/xlink" xmlns:sketch="http://www.bohemiancoding.com/sketch/ns">
    <!-- Generator: Sketch 3.2.2 (9983) - http://www.bohemiancoding.com/sketch -->
    <title>download</title>
    <desc>Created with Sketch.</desc>
    <defs></defs>
    <g id="Page-1" stroke="none" stroke-width="1" fill="none" fill-rule="evenodd" sketch:type="MSPage">
        <path d="M15.0534583,15.5529752 L15.0534583,2.0456036 L15.0534583,2.0456036 C21.1875142,2.57910895 26,7.72754633 26,14 C26,20.627417 20.627417,26 14,26 C7.372583,26 2,20.627417 2,14 C2,7.7262292 6.81450715,2.5769468 12.9504061,2.04526812 L12.9504061,15.5529752 L12.9504061,15.5529752 L9.59120873,12.1937778 C9.17592689,11.778496 8.51102335,11.7793819 8.10037688,12.1900284 C7.68686745,12.6035378 7.69140908,13.268143 8.1041263,13.6808603 L13.1239984,18.7007324 C13.3642302,18.9409641 13.6879947,19.0419304 13.9977508,19.0048717 C14.3099727,19.0451507 14.6361934,18.944405 14.8762407,18.7043576 L19.98351,13.5970883 C20.391082,13.1895164 20.3942807,12.5205282 19.9836342,12.1098817 C19.5701248,11.6963723 18.9071427,11.6992908 18.4964276,12.1100059 L15.0534583,15.5529752 Z M14.3003665,16.306067 L13.7034979,16.306067 L14.0019322,16.6045013 L14.3003665,16.306067 Z M14,28 C21.7319865,28 28,21.7319865 28,14 C28,6.2680135 21.7319865,0 14,0 C6.2680135,0 0,6.2680135 0,14 C0,21.7319865 6.2680135,28 14,28 Z" id="download" fill="#FF0000" sketch:type="MSShapeGroup"></path>
    </g>
</svg>