<?xml version="1.0" encoding="UTF-8" standalone="no"?>
<svg width="18px" height="18px" viewBox="0 0 18 18" version="1.1" xmlns="http://www.w3.org/2000/svg" xmlns:xlink="http://www.w3.org/1999/xlink" xmlns:sketch="http://www.bohemiancoding.com/sketch/ns">
    <!-- Generator: Sketch 3.2.2 (9983) - http://www.bohemiancoding.com/sketch -->
    <title>fullscreen</title>
    <desc>Created with Sketch.</desc>
    <defs></defs>
    <g id="Page-1" stroke="none" stroke-width="1" fill="none" fill-rule="evenodd" sketch:type="MSPage">
        <path d="M2.00000003,14.5808778 L2.00000003,9.00249801 C2.00000003,8.44784423 1.55228478,7.99509136 1.00000003,7.99509136 C0.443864849,7.99509136 2.38477451e-08,8.44612268 2.05416768e-08,9.002498 L-2.65278586e-08,16.9237885 C-2.66052595e-08,16.9368142 0.000246896819,16.9497837 0.000736299281,16.9626925 L0.000736299281,16.9626925 C0.000247013904,16.9755125 2.65278572e-08,16.9883938 2.65278572e-08,17.0013322 C2.65278572e-08,17.5609381 0.445654698,18.0041692 0.995397594,17.9999704 L9.00460246,17.9387978 C9.54433563,17.9346754 10,17.4825492 10,16.9291164 L10,16.9971701 C10,16.4441389 9.55434536,15.9950914 9.00460246,15.9950914 L3.41421358,15.9950914 L8.15338506,11.2559199 L6.7391715,9.84170632 L2.00000003,14.5808778 Z M16,3.41421356 L16,8.99259335 C16,9.54724713 16.4477152,10 17,10 C17.5561352,10 18,9.54896868 18,8.99259335 L18,1.07130289 C18,1.05827715 17.9997531,1.04530762 17.9992637,1.03239883 L17.9992637,1.03239883 C17.999753,1.01957887 18,1.00669753 18,0.993759154 C18,0.434153222 17.5543453,-0.00907787697 17.0046024,-0.00487905755 L8.99539754,0.0562935471 C8.45566437,0.0604159144 7.99999997,0.512542114 7.99999997,1.06597492 L7.99999997,0.997921232 C7.99999997,1.55095246 8.44565464,1.99999997 8.99539754,1.99999997 L14.5857864,1.99999999 L9.79534751,6.7904389 L11.2095611,8.20465246 L16,3.41421356 L16,3.41421356 Z" id="fullscreen" fill="#FF0000" sketch:type="MSShapeGroup"></path>
    </g>
</svg>