<?xml version="1.0" encoding="UTF-8" standalone="no"?>
<svg width="28px" height="28px" viewBox="0 0 28 28" version="1.1" xmlns="http://www.w3.org/2000/svg" xmlns:xlink="http://www.w3.org/1999/xlink" xmlns:sketch="http://www.bohemiancoding.com/sketch/ns">
    <!-- Generator: Sketch 3.2.2 (9983) - http://www.bohemiancoding.com/sketch -->
    <title>indexed</title>
    <desc>Created with Sketch.</desc>
    <defs></defs>
    <g id="Page-1" stroke="none" stroke-width="1" fill="none" fill-rule="evenodd" sketch:type="MSPage">
        <path d="M11.886566,19.8608593 C12.1894723,19.9037723 12.508639,19.8069418 12.7430524,19.5725284 L20.8051605,11.5104202 C21.2026392,11.1129415 21.2017548,10.4806609 20.8112305,10.0901366 C20.4179836,9.69688969 19.7848236,9.70232999 19.390947,10.0962067 L11.8786797,17.608474 L8.36135462,14.0911489 C7.966031,13.6958253 7.33875869,13.701718 6.9482344,14.0922423 C6.55498744,14.4854892 6.5572206,15.115442 6.94714106,15.5053625 L11.0214703,19.5796917 C11.2597732,19.8179946 11.58236,19.9105062 11.886566,19.8608593 Z M14,28 C21.7319865,28 28,21.7319865 28,14 C28,6.2680135 21.7319865,0 14,0 C6.2680135,0 0,6.2680135 0,14 C0,21.7319865 6.2680135,28 14,28 Z M14,26 C20.627417,26 26,20.627417 26,14 C26,7.372583 20.627417,2 14,2 C7.372583,2 2,7.372583 2,14 C2,20.627417 7.372583,26 14,26 Z" id="indexed" fill="#FF0000" sketch:type="MSShapeGroup"></path>
    </g>
</svg>