<?xml version="1.0" encoding="UTF-8" standalone="no"?>
<svg width="57px" height="56px" viewBox="0 0 57 56" version="1.1" xmlns="http://www.w3.org/2000/svg" xmlns:xlink="http://www.w3.org/1999/xlink" xmlns:sketch="http://www.bohemiancoding.com/sketch/ns">
    <!-- Generator: Sketch 3.2.2 (9983) - http://www.bohemiancoding.com/sketch -->
    <title>indexed_mob</title>
    <desc>Created with Sketch.</desc>
    <defs></defs>
    <g id="Page-1" stroke="none" stroke-width="1" fill="none" fill-rule="evenodd" sketch:type="MSPage">
        <path d="M24.1753266,39.7661785 C24.76399,39.8378948 25.3769367,39.6463256 25.8287562,39.1945062 L41.3893414,23.6339209 C42.1685913,22.854671 42.168272,21.5886604 41.3872234,20.8076118 C40.6007295,20.0211179 39.3407931,20.025615 38.5609143,20.8054938 L24.1948352,35.1715729 L17.5289154,28.505653 C16.7458855,27.7226232 15.4758838,27.7189514 14.6948352,28.5 C13.9083413,29.2864939 13.9163176,30.5499095 14.7004883,31.3340802 L22.5531432,39.1867351 C22.996732,39.6303239 23.5966026,39.8237967 24.1753266,39.7661785 Z M28.1948352,56 C43.6588082,56 56.1948352,43.463973 56.1948352,28 C56.1948352,12.536027 43.6588082,0 28.1948352,0 C12.7308622,0 0.194835228,12.536027 0.194835228,28 C0.194835228,43.463973 12.7308622,56 28.1948352,56 Z M28.1948352,53.6515116 C42.3617739,53.6515116 53.8463468,42.1669387 53.8463468,28 C53.8463468,13.8330613 42.3617739,2.34848838 28.1948352,2.34848838 C14.0278966,2.34848838 2.54332361,13.8330613 2.54332361,28 C2.54332361,42.1669387 14.0278966,53.6515116 28.1948352,53.6515116 Z" id="indexed_mob" opacity="0.7" fill="#FF0000" sketch:type="MSShapeGroup"></path>
    </g>
</svg>