<?xml version="1.0" encoding="iso-8859-1"?>
<!-- Generator: Adobe Illustrator 18.1.1, SVG Export Plug-In . SVG Version: 6.00 Build 0)  -->
<svg version="1.1" xmlns="http://www.w3.org/2000/svg" xmlns:xlink="http://www.w3.org/1999/xlink" x="0px" y="0px"
	 viewBox="0 0 668.487 99.661" style="enable-background:new 0 0 668.487 99.661;" xml:space="preserve">
<g id="Calque_1">
	<path d="M178.48,0.416h-34.814h-0.009c-27.361,0-49.541,22.182-49.541,49.543c0,27.358,22.18,49.54,49.541,49.54
		c0,0,0.005,0,0.009,0h34.814c27.358-0.003,49.536-22.181,49.536-49.54C228.017,22.598,205.838,0.419,178.48,0.416z M178.486,78.512
		c-0.021,0-0.041,0-0.062,0h-34.72c-0.021,0-0.043,0-0.064,0c-15.775,0-28.564-12.793-28.564-28.563
		c0-15.777,12.788-28.57,28.564-28.57c0.005,0,0.007,0,0.008,0v-0.017h34.826v0.017c0.005,0,0.01,0,0.013,0
		c15.775,0,28.565,12.793,28.565,28.57C207.052,65.72,194.262,78.512,178.486,78.512z M258.242,40.758h78.573v18.385h-78.57
		c3.83,11.265,14.495,19.369,27.053,19.369c0.021,0,0.04,0,0.061,0h53.259l9.95,20.986h-63.246h-0.011
		c-27.358,0-49.538-22.181-49.538-49.54c0-27.361,22.18-49.543,49.538-49.543c0.003,0,0.008,0,0.011,0h63.246l-9.943,20.947h-53.318
		v0.017c-0.004,0-0.005,0-0.009,0C272.736,21.379,262.068,29.491,258.242,40.758z M542.806,40.758h78.565v18.385h-78.565
		c3.829,11.265,14.492,19.369,27.051,19.369c0.02,0,0.043,0,0.066,0h53.257l9.943,20.986h-63.24h-0.013
		c-27.356,0-49.537-22.181-49.537-49.54c0-27.361,22.182-49.543,49.537-49.543c0,0,0.006,0,0.013,0h63.24l-9.936,20.947h-53.323
		v0.017c-0.003,0-0.003,0-0.007,0C557.295,21.379,546.628,29.491,542.806,40.758z M668.487,0.416v14.206l-20.986,6.738V0.416
		H668.487z M647.501,28.408l20.986-6.734v77.819h-20.986V28.408z M493.101,16.044l25.195,83.587H497.34l-18.02-59.405l-6.438-21.221
		l-6.417,21.155l-14.665,48.342l-0.759,2.499c-1.975,4.819-6.577,8.293-12.023,8.63c-0.291,0.02-0.581,0.029-0.879,0.029
		c-0.29,0-0.587-0.01-0.878-0.029c-5.579-0.347-10.273-3.979-12.165-8.986l-0.542-1.78l-14.774-48.714l-6.414-21.145l-6.444,21.234
		l-18.016,59.392H357.95l25.084-83.227l1.047-3.453c2.77-6.913,9.174-11.974,16.85-12.823h4.579
		c7.817,0.865,14.321,6.104,16.995,13.219l0.951,3.367l14.72,52.244l14.49-51.706c0,0,0.699-2.938,1.222-4.364
		c2.786-6.88,9.171-11.914,16.823-12.76C471.46,0.043,472.229,0,472.999,0c0.775,0,1.541,0.043,2.291,0.128
		c7.801,0.862,14.288,6.078,16.982,13.166L493.101,16.044z M0,0.413h21.02v98.894H0V0.413z M57.215,59.11l49.895,40.184H77.155
		L32.777,63.551l-1.018-0.819c-3.58-3.12-5.843-7.712-5.843-12.829c0-5.034,2.187-9.557,5.662-12.67l1.385-1.116L77.131,0.508
		h29.955L57.224,40.706l-11.409,9.197L57.215,59.11z"/>
</g>
<g id="Layer_1">
</g>
</svg>
