<?xml version="1.0" encoding="iso-8859-1"?>
<!-- Generator: Adobe Illustrator 18.1.1, SVG Export Plug-In . SVG Version: 6.00 Build 0)  -->
<svg version="1.1" xmlns="http://www.w3.org/2000/svg" xmlns:xlink="http://www.w3.org/1999/xlink" x="0px" y="0px"
	 viewBox="0 0 47.985 48" style="enable-background:new 0 0 47.985 48;" xml:space="preserve">
<g id="Layer_1_1_">
	<path style="fill-rule:evenodd;clip-rule:evenodd;fill:#ED1C24;" d="M38.985,48H1.999C0.895,48,0,47.105,0,46v-8V10.001V2
		c0-1.105,0.895-2,1.999-2h43.987c1.104,0,1.999,0.895,1.999,2v8l0,28.999L38.985,48z M45.986,3c0-0.552-0.447-1-0.999-1H2.998
		C2.446,2,1.999,2.448,1.999,3v7L1.985,27L1.999,45c0,0.552,0.447,1,0.999,1h34.987l8-8V27l0.001-16.999V3z M29.985,19h-22
		c-0.552,0-1-0.448-1-1c0-0.552,0.448-1,1-1h22c0.552,0,1,0.448,1,1C30.985,18.552,30.538,19,29.985,19z M29.985,14h-22
		c-0.552,0-1-0.448-1-1c0-0.552,0.448-1,1-1h22c0.552,0,1,0.448,1,1C30.985,13.552,30.538,14,29.985,14z M29.985,9h-22
		c-0.552,0-1-0.448-1-1c0-0.552,0.448-1,1-1h22c0.552,0,1,0.448,1,1C30.985,8.552,30.538,9,29.985,9z M7.985,22h17
		c0.552,0,1,0.448,1,1c0,0.552-0.448,1-1,1h-17c-0.552,0-1-0.448-1-1C6.985,22.448,7.433,22,7.985,22z"/>
</g>
<g id="Layer_1">
</g>
</svg>
