<?xml version="1.0" encoding="iso-8859-1"?>
<!-- Generator: Adobe Illustrator 18.1.1, SVG Export Plug-In . SVG Version: 6.00 Build 0)  -->
<svg version="1.1" xmlns="http://www.w3.org/2000/svg" xmlns:xlink="http://www.w3.org/1999/xlink" x="0px" y="0px"
	 viewBox="0 0 199.272 162.894" style="enable-background:new 0 0 199.272 162.894;" xml:space="preserve">
<g id="Layer_1_1_">
	<path style="fill:#ED1D24;" d="M107.968,162.894c-2.783,0-5.677-1.264-8.085-3.636L56.88,122.152
		c-1.988-1.716-4.53-2.661-7.156-2.661H23.97C10.753,119.491,0,108.738,0,95.521V67.373c0-13.217,10.753-23.97,23.97-23.97h25.754
		c2.626,0,5.168-0.945,7.156-2.661L99.882,3.636c3.404-3.353,7.779-4.492,11.44-2.976c3.619,1.499,5.694,5.217,5.694,10.201v141.173
		c0,4.983-2.075,8.701-5.694,10.2C110.251,162.678,109.119,162.894,107.968,162.894z M6.075,81.525v13.996
		c0,9.868,8.028,17.896,17.896,17.896h25.754c4.083,0,8.034,1.469,11.125,4.136l43.166,37.248l0.079,0.079
		c1.596,1.596,3.567,2.294,4.903,1.742c1.236-0.512,1.944-2.184,1.944-4.589l0.018-70.586l-0.018-70.585
		c0-2.405-0.708-4.078-1.944-4.59c-1.338-0.554-3.308,0.147-4.903,1.742l-0.164,0.152L60.849,45.342
		c-3.091,2.667-7.042,4.136-11.125,4.136H23.97c-9.868,0-17.896,8.028-17.896,17.896V81.525z M171.935,154.83
		c-0.688,0-1.38-0.232-1.948-0.708c-1.286-1.077-1.456-2.992-0.379-4.279c0.234-0.281,23.59-28.763,23.59-70.51
		c0-36.768-23.777-65.445-24.017-65.73c-1.08-1.283-0.916-3.198,0.366-4.279c1.283-1.081,3.196-0.918,4.278,0.363
		c0.261,0.31,6.481,7.735,12.751,20.029c5.792,11.358,12.697,29.187,12.697,49.618c0,23.009-6.769,41.974-12.447,53.832
		c-6.169,12.882-12.302,20.27-12.56,20.579C173.664,154.46,172.802,154.83,171.935,154.83z M152.41,136.172
		c-0.75,0-1.501-0.276-2.088-0.832c-1.218-1.154-1.27-3.076-0.117-4.294c0.161-0.171,16.524-18.006,16.524-51.714
		c0-26.184-16.956-47.789-17.127-48.005c-1.044-1.312-0.828-3.222,0.482-4.267c1.311-1.044,3.22-0.832,4.266,0.479
		c0.753,0.943,18.454,23.432,18.454,51.793c0,36.269-17.445,55.107-18.188,55.891C154.019,135.854,153.216,136.172,152.41,136.172z
		 M132.451,115.345c-0.72,0-1.442-0.254-2.021-0.771c-1.252-1.117-1.361-3.037-0.244-4.289c0.072-0.083,8.341-9.817,8.341-30.954
		c0-16.554-9.15-27.414-9.243-27.522c-1.09-1.271-0.948-3.187,0.32-4.281c1.267-1.093,3.179-0.957,4.276,0.308
		c0.438,0.505,10.722,12.59,10.722,31.494c0,23.648-9.479,34.545-9.883,34.998C134.118,115.003,133.286,115.345,132.451,115.345z"/>
</g>
<g id="Layer_1">
</g>
</svg>
