<?xml version="1.0" encoding="iso-8859-1"?>
<!-- Generator: Adobe Illustrator 18.1.1, SVG Export Plug-In . SVG Version: 6.00 Build 0)  -->
<svg version="1.1" xmlns="http://www.w3.org/2000/svg" xmlns:xlink="http://www.w3.org/1999/xlink" x="0px" y="0px"
	 viewBox="0 0 44 46" style="enable-background:new 0 0 44 46;" xml:space="preserve">
<g id="Layer_1_1_">
	<path style="fill-rule:evenodd;clip-rule:evenodd;fill:none;" d="M38.288,27.644c-1.958,2.368-4.121,4.485-6.584,6.356H14.272
		c-2.71-2.039-5.036-4.352-7.08-6.959C3.869,22.803,1,18.782,1,13.189C1,0.934,10.85-9,23-9s22,9.934,22,22.189
		C45,19.026,41.908,23.266,38.288,27.644z M20,32h6V19h-6V32z M23-7C11.954-7,3,2.106,3,13.34c0,5.128,2.608,8.813,5.629,12.698
		c1.839,2.364,3.937,4.461,6.371,6.312V32h3V18.65C17.544,18.868,17.039,19,16.5,19c-1.933,0-3.5-1.567-3.5-3.5s1.567-3.5,3.5-3.5
		c1.762,0,3.205,1.306,3.45,3H20v2h6v-2h0.05c0.245-1.694,1.688-3,3.45-3c1.933,0,3.5,1.567,3.5,3.5S31.433,19,29.5,19
		c-0.539,0-1.044-0.132-1.5-0.35V32h3v0.34c2.203-1.695,4.143-3.609,5.898-5.749C40.189,22.577,43,18.691,43,13.34
		C43,2.106,34.046-7,23-7z M18,15.5c0-0.828-0.672-1.5-1.5-1.5S15,14.672,15,15.5s0.672,1.5,1.5,1.5S18,16.328,18,15.5z M28,15.5
		c0,0.828,0.672,1.5,1.5,1.5s1.5-0.672,1.5-1.5S30.328,14,29.5,14S28,14.672,28,15.5z M16,36h14c0.552,0,1,0.448,1,1s-0.448,1-1,1
		H16c-0.552,0-1-0.448-1-1S15.448,36,16,36z M19,40h8c0.552,0,1,0.448,1,1s-0.448,1-1,1h-8c-0.552,0-1-0.448-1-1S18.448,40,19,40z
		 M21,44h4c0.552,0,1,0.448,1,1s-0.448,1-1,1h-4c-0.552,0-1-0.448-1-1S20.448,44,21,44z"/>
</g>
<g id="Layer_1">
</g>
</svg>
