<?xml version="1.0" encoding="iso-8859-1"?>
<!-- Generator: Adobe Illustrator 18.1.1, SVG Export Plug-In . SVG Version: 6.00 Build 0)  -->
<svg version="1.1" xmlns="http://www.w3.org/2000/svg" xmlns:xlink="http://www.w3.org/1999/xlink" x="0px" y="0px"
	 viewBox="0 0 44.984 45.988" style="enable-background:new 0 0 44.984 45.988;" xml:space="preserve">
<g id="Layer_3">
	<path d="M44.673,6.339l-0.084-0.171C42.119,2.133,38.4,0,33.834,0C20.915,0,4.229,16.825,0.723,29.866
		c-1.904,7.081-0.016,12.683,5.315,15.773l0.173,0.079c0.514,0.179,1.032,0.27,1.541,0.27c3.227,0,5.373-3.433,7.13-6.65
		c2.432-4.451-2.1-10.653-4.181-13.133c3.819-7.099,7.386-10.752,14.674-15.034c1.886,1.506,6.277,4.636,10.19,4.637
		c0.001,0,0.001,0,0.001,0c1.105,0,2.102-0.249,2.96-0.739C41.239,13.522,46.287,10.642,44.673,6.339z M37.535,13.332
		c-0.553,0.316-1.216,0.476-1.969,0.476c-2.93,0-6.802-2.384-9.449-4.615L25.58,8.741l-0.607,0.351
		c-8.286,4.776-12.108,8.697-16.361,16.782l-0.321,0.61L8.747,27c3.018,3.424,5.976,8.458,4.38,11.379
		c-1.793,3.282-3.753,6.242-6.173,5.479c-5.649-3.334-5.46-9.161-4.3-13.474C6.585,15.765,23.552,2,33.834,2
		c3.855,0,6.882,1.725,8.996,5.126C43.584,9.336,41.258,11.208,37.535,13.332z"/>
</g>
<g id="Layer_1">
</g>
</svg>
