<?xml version="1.0" encoding="iso-8859-1"?>
<!-- Generator: Adobe Illustrator 18.1.1, SVG Export Plug-In . SVG Version: 6.00 Build 0)  -->
<svg version="1.1" xmlns="http://www.w3.org/2000/svg" xmlns:xlink="http://www.w3.org/1999/xlink" x="0px" y="0px"
	 viewBox="0 0 80 80" style="enable-background:new 0 0 80 80;" xml:space="preserve">
<g id="Layer_1_1_">
	<path d="M40,2c20.953,0,38,17.047,38,38S60.953,78,40,78S2,60.953,2,40S19.047,2,40,2 M40,0C17.909,0,0,17.909,0,40
		s17.909,40,40,40s40-17.909,40-40S62.091,0,40,0L40,0z M32.667,27.609L53.56,40.667L32.667,53.725V27.609 M30.667,24v33.334
		l26.667-16.666L30.667,24L30.667,24z"/>
</g>
<g id="Layer_1">
</g>
</svg>
