<?xml version="1.0" encoding="iso-8859-1"?>
<!-- Generator: Adobe Illustrator 18.1.1, SVG Export Plug-In . SVG Version: 6.00 Build 0)  -->
<svg version="1.1" xmlns="http://www.w3.org/2000/svg" xmlns:xlink="http://www.w3.org/1999/xlink" x="0px" y="0px"
	 viewBox="0 0 42.001 42.002" style="enable-background:new 0 0 42.001 42.002;" xml:space="preserve">
<g id="Layer_1_1_">
	<path style="fill-rule:evenodd;clip-rule:evenodd;fill:none;" d="M41,33c0.552,0,1,0.448,1,1v6.953
		c0.014,0.274-0.075,0.552-0.285,0.762c-0.21,0.21-0.488,0.299-0.763,0.285H34c-0.552,0-1-0.448-1-1c0-0.552,0.448-1,1-1h4.577
		L20.996,22.419L3.414,40H8c0.552,0,1,0.448,1,1c0,0.552-0.448,1-1,1H1c-0.552,0-1-0.448-1-1v-7c0-0.553,0.448-1,1-1s1,0.448,1,1
		v4.586l17.581-17.582L2,3.423V8c0,0.553-0.448,1-1,1S0,8.552,0,8V1c0-0.553,0.448-1,1-1h7c0.552,0,1,0.448,1,1c0,0.552-0.448,1-1,1
		H3.423l17.581,17.581L38.585,2H34c-0.552,0-1-0.448-1-1c0-0.553,0.448-1,1-1h7c0.552,0,1,0.448,1,1v7c0,0.553-0.448,1-1,1
		s-1-0.448-1-1V3.414L22.419,20.996L40,38.577V34C40,33.448,40.448,33,41,33z"/>
</g>
<g id="Layer_1">
</g>
</svg>
