<?xml version="1.0" encoding="iso-8859-1"?>
<!-- Generator: Adobe Illustrator 18.1.1, SVG Export Plug-In . SVG Version: 6.00 Build 0)  -->
<svg version="1.1" xmlns="http://www.w3.org/2000/svg" xmlns:xlink="http://www.w3.org/1999/xlink" x="0px" y="0px"
	 viewBox="0 0 10.169 9.994" style="enable-background:new 0 0 10.169 9.994;" xml:space="preserve">
<g id="Layer_1_1_">
	<g>
		<path style="fill:#ED1D24;" d="M8.9,4.951c1.027-1.09,1.488-2.173,1.086-2.869C9.616,1.44,8.59,1.274,7.291,1.52L7.289,1.513
			c-0.14,0.031-0.203,0.044-0.229,0.05c-0.001,0-0.002,0-0.003,0.001C6.624,0.185,5.929-0.714,5.144-0.714
			c-0.804,0-1.511,0.94-1.942,2.375C1.73,1.309,0.537,1.435,0.138,2.126c-0.394,0.683,0.078,1.76,1.094,2.846
			C0.314,6.004-0.08,7.013,0.301,7.674c0.393,0.68,1.518,0.833,2.929,0.518c0.433,1.379,1.128,2.278,1.913,2.278
			c0.763,0,1.44-0.845,1.875-2.157c1.448,0.336,2.617,0.207,3.012-0.476C10.429,7.145,9.941,6.05,8.9,4.951z M0.551,2.364
			c0.265-0.459,1.271-0.513,2.522-0.22C2.968,2.579,2.887,3.048,2.835,3.545c0,0,0,0,0,0C2.361,3.889,1.939,4.249,1.575,4.61
			C0.726,3.691,0.29,2.815,0.551,2.364z M2.796,5.724C2.481,5.477,2.189,5.223,1.925,4.967c0.257-0.259,0.543-0.519,0.858-0.772
			c0.001-0.02,0.024-0.018,0.024-0.018C2.8,4.183,2.791,4.189,2.784,4.195C2.78,4.267,2.778,5.448,2.796,5.724z M3.095,7.711
			C1.909,7.967,0.973,7.885,0.713,7.436C0.463,7.002,0.827,6.194,1.586,5.33c0.373,0.357,0.8,0.71,1.273,1.046
			C2.901,6.722,3.06,7.55,3.06,7.55C3.072,7.603,3.082,7.659,3.095,7.711C3.1,7.71,3.106,7.708,3.112,7.707l0.005,0.016
			C3.109,7.719,3.104,7.714,3.095,7.711z M6.71,2.166C6.804,2.529,6.88,2.923,6.937,3.332C6.723,3.191,6.503,3.053,6.274,2.92
			C6.045,2.788,5.815,2.668,5.586,2.553c0.383-0.155,0.76-0.286,1.121-0.386C6.712,2.165,6.713,2.165,6.71,2.166z M5.144-0.238
			c0.519,0,1.057,0.77,1.429,1.925c0.002,0-0.293,0.098-0.293,0.098C5.866,1.918,5.44,2.079,5.005,2.279
			c-0.45-0.198-0.894-0.362-1.319-0.489C4.057,0.579,4.61-0.238,5.144-0.238z M3.553,2.271c0.283,0.082,0.574,0.18,0.869,0.294
			C4.266,2.646,4.11,2.727,3.954,2.817C3.753,2.933,3.561,3.053,3.372,3.176C3.421,2.86,3.483,2.558,3.553,2.271z M3.402,6.743
			c0.16,0.102,0.325,0.202,0.493,0.299C4.062,7.139,4.231,7.231,4.4,7.319C4.12,7.422,3.844,7.517,3.578,7.59
			C3.509,7.323,3.452,7.036,3.402,6.743z M5.144,9.994c-0.518,0-1.057-0.77-1.429-1.925c-0.002,0,0.91-0.299,1.283-0.459
			c0.524,0.24,1.041,0.432,1.534,0.576C6.162,9.274,5.644,9.994,5.144,9.994z M6.676,7.71c-0.352-0.1-0.718-0.225-1.088-0.374
			c0.248-0.122,0.497-0.253,0.746-0.397c0.2-0.115,0.392-0.236,0.58-0.357l0.001,0.001C6.853,6.981,6.772,7.359,6.676,7.71z
			 M6.996,5.938L6.984,5.954c-0.281,0.2-0.578,0.393-0.888,0.572c-0.364,0.21-0.734,0.391-1.101,0.552
			C4.705,6.943,4.416,6.793,4.132,6.63S3.575,6.29,3.312,6.107C3.268,5.709,3.24,5.298,3.24,4.878c0-0.361,0.019-0.716,0.052-1.062
			l0.001-0.008c0.285-0.203,0.585-0.398,0.899-0.58c0.269-0.155,0.542-0.293,0.814-0.421c0.346,0.155,0.691,0.329,1.03,0.524
			c0.339,0.196,0.662,0.409,0.969,0.63c0.025,0.3,0.042,0.605,0.042,0.915C7.048,5.238,7.029,5.593,6.996,5.938z M7.214,2.041
			c1.175-0.25,2.103-0.168,2.36,0.279C9.841,2.782,9.41,3.67,8.547,4.597C8.224,4.292,7.861,3.99,7.464,3.699
			C7.409,3.109,7.319,2.55,7.193,2.045C7.197,2.045,7.205,2.043,7.214,2.041z M7.508,4.346c0.246,0.199,0.477,0.402,0.689,0.606
			C7.984,5.156,7.753,5.361,7.504,5.561c-0.003,0.002-0.003,0.002-0.001,0C7.507,5.489,7.515,4.522,7.508,4.346z M9.618,7.598
			C9.357,8.049,8.381,8.11,7.16,7.834c0.131-0.495,0.232-1.041,0.293-1.624c0.026-0.019,0.049-0.039,0.075-0.058
			C7.559,6.129,7.6,6.098,7.658,6.055l0-0.004c0.321-0.244,0.623-0.494,0.89-0.747C9.426,6.241,9.883,7.14,9.618,7.598z"/>
		<path style="fill:#ED1D24;" d="M5.144,3.807c-0.657,0-1.19,0.533-1.19,1.19s0.533,1.19,1.19,1.19s1.19-0.533,1.19-1.19
			S5.801,3.807,5.144,3.807z M5.144,5.711c-0.394,0-0.714-0.32-0.714-0.714s0.32-0.714,0.714-0.714s0.714,0.32,0.714,0.714
			S5.538,5.711,5.144,5.711z"/>
	</g>
	<g id="Layer_1_2_">
	</g>
</g>
<g id="Layer_1">
</g>
</svg>
