<?xml version="1.0" encoding="utf-8"?>
<!-- Generator: Adobe Illustrator 15.0.0, SVG Export Plug-In . SVG Version: 6.00 Build 0)  -->
<!DOCTYPE svg PUBLIC "-//W3C//DTD SVG 1.1//EN" "http://www.w3.org/Graphics/SVG/1.1/DTD/svg11.dtd">
<svg version="1.1" id="Layer_1" xmlns="http://www.w3.org/2000/svg" xmlns:xlink="http://www.w3.org/1999/xlink" x="0px" y="0px"
	 width="40px" height="40px" viewBox="0 0 40 40" enable-background="new 0 0 40 40" xml:space="preserve">
<path fill="none" d="M20,13.913c3.361,0,6.087,2.725,6.087,6.087c0,3.361-2.726,6.087-6.087,6.087c-3.362,0-6.087-2.726-6.087-6.087
	C13.913,16.638,16.638,13.913,20,13.913z M20,15.652c2.4,0,4.348,1.947,4.348,4.348c0,2.402-1.947,4.348-4.348,4.348
	c-2.401,0-4.348-1.945-4.348-4.348C15.652,17.599,17.599,15.652,20,15.652z"/>
<path fill="none" d="M38.266,18.99c0-0.56-0.453-1.016-1.014-1.016h-3.219c-0.357-2.391-1.312-4.578-2.707-6.425l2.308-2.308
	c0.396-0.396,0.396-1.039,0-1.436l-1.435-1.435c-0.396-0.396-1.039-0.396-1.436,0l-2.31,2.311c-1.854-1.37-4.031-2.334-6.423-2.678
	v-3.25c0-0.56-0.454-1.015-1.015-1.015h-2.03c-0.561,0-1.015,0.455-1.015,1.015v3.25c-2.39,0.344-4.568,1.308-6.421,2.679
	L9.241,6.372c-0.396-0.396-1.038-0.396-1.435,0L6.371,7.807c-0.396,0.396-0.396,1.04,0,1.436l2.308,2.308
	c-1.395,1.847-2.349,4.034-2.707,6.425H2.755c-0.562,0-1.016,0.455-1.016,1.015v2.029c0,0.562,0.454,1.016,1.015,1.016h3.217
	c0.358,2.391,1.312,4.578,2.707,6.426l-2.308,2.308c-0.396,0.396-0.396,1.039,0,1.436l1.435,1.435c0.396,0.396,1.039,0.396,1.435,0
	l2.31-2.311c1.853,1.372,4.031,2.336,6.422,2.68v3.25c0,0.56,0.454,1.014,1.015,1.014h2.03c0.561,0,1.015-0.453,1.015-1.014v-3.25
	c2.391-0.344,4.568-1.308,6.422-2.68l2.311,2.311c0.396,0.396,1.038,0.396,1.435,0l1.435-1.435c0.396-0.396,0.396-1.039,0-1.436
	l-2.308-2.308c1.396-1.848,2.349-4.035,2.708-6.426h3.217c0.561,0,1.016-0.454,1.016-1.016V18.99L38.266,18.99z M37.391,23.479
	h-2.139c-0.396,1.744-1.086,3.373-2.012,4.842l1.518,1.518c1.018,1.019,1.018,2.67,0,3.689l-1.23,1.229
	c-1.018,1.02-2.67,1.02-3.689,0l-1.516-1.516c-1.471,0.925-3.099,1.613-4.844,2.01v2.141c0,1.441-1.167,2.609-2.607,2.609h-1.74
	c-1.441,0-2.609-1.168-2.609-2.609v-2.139c-1.744-0.396-3.374-1.086-4.842-2.012l-1.517,1.518c-1.019,1.019-2.67,1.019-3.689,0
	l-1.23-1.23c-1.019-1.019-1.019-2.67,0-3.689l1.517-1.516c-0.926-1.471-1.616-3.1-2.012-4.844h-2.14C1.168,23.479,0,22.311,0,20.869
	V19.13c0-1.441,1.168-2.609,2.609-2.609h2.14c0.396-1.744,1.085-3.374,2.011-4.842l-1.517-1.517c-1.019-1.019-1.019-2.67,0-3.689
	l1.229-1.229c1.019-1.019,2.67-1.019,3.689,0l1.517,1.516c1.47-0.925,3.099-1.615,4.843-2.011v-2.14C16.521,1.168,17.689,0,19.13,0
	h1.739c1.441,0,2.609,1.168,2.609,2.609v2.14c1.744,0.396,3.373,1.085,4.842,2.011l1.518-1.517c1.019-1.019,2.67-1.019,3.689,0
	l1.229,1.229c1.02,1.019,1.02,2.67,0,3.689l-1.516,1.517c0.925,1.469,1.613,3.098,2.01,4.843h2.141c1.441,0,2.609,1.167,2.609,2.608
	v1.74C40,22.311,38.832,23.479,37.391,23.479z"/>
<g id="Layer_1_2_">
</g>
</svg>
