<?xml version="1.0" encoding="iso-8859-1"?>
<!-- Generator: Adobe Illustrator 18.1.1, SVG Export Plug-In . SVG Version: 6.00 Build 0)  -->
<svg version="1.1" xmlns="http://www.w3.org/2000/svg" xmlns:xlink="http://www.w3.org/1999/xlink" x="0px" y="0px"
	 viewBox="0 0 34 40" style="enable-background:new 0 0 34 40;" xml:space="preserve">
<g id="Layer_1_1_">
	<path style="fill-rule:evenodd;clip-rule:evenodd;fill:none;" d="M0,40v-1v-0.999V19c0-0.552,0.448-1,1-1s1,0.448,1,1v19.001h2V8
		c0-0.552,0.448-1,1-1c0.552,0,1,0.448,1,1v30.001h2V13c0-0.552,0.448-1,1-1c0.552,0,1,0.448,1,1v25h2V1c0-0.552,0.448-1,1-1
		c0.552,0,1,0.448,1,1v37.001h2V9c0-0.552,0.448-1,1-1s1,0.448,1,1v29.001h2V15c0-0.552,0.448-1,1-1c0.552,0,1,0.448,1,1v23.001h2V4
		c0-0.553,0.448-1,1-1c0.552,0,1,0.448,1,1v34h2V19c0-0.552,0.448-1,1-1c0.552,0,1,0.448,1,1v19.001h2V9c0-0.552,0.448-1,1-1
		s1,0.448,1,1v29.001V39v1H0z"/>
</g>
<g id="Layer_1">
</g>
</svg>
