<?xml version="1.0" encoding="iso-8859-1"?>
<!-- Generator: Adobe Illustrator 18.1.1, SVG Export Plug-In . SVG Version: 6.00 Build 0)  -->
<svg version="1.1" xmlns="http://www.w3.org/2000/svg" xmlns:xlink="http://www.w3.org/1999/xlink" x="0px" y="0px"
	 viewBox="0 0 32 48" style="enable-background:new 0 0 32 48;" xml:space="preserve">
<g id="Layer_1_1_">
	<path style="fill-rule:evenodd;clip-rule:evenodd;fill:#ED1C24;" d="M17,41.95V46h3.8c0.663,0,1.2,0.447,1.2,1
		c0,0.552-0.537,1-1.2,1H17h-2h-3.8c-0.663,0-1.2-0.448-1.2-1c0-0.553,0.537-1,1.2-1H15V41.95C6.632,41.431,0,34.499,0,26v-2
		c0-0.552,0.448-1,1-1c0.552,0,1,0.448,1,1v2c0,7.732,6.268,14.001,14,14.001c7.732,0,14-6.268,14-14.001v-2c0-0.552,0.448-1,1-1
		c0.552,0,1,0.448,1,1v2C32,34.499,25.368,41.431,17,41.95z M17,35h-2c-4.418,0-8-3.582-8-8V8c0-4.418,3.582-8,8-8h2
		c4.418,0,8,3.582,8,8v19C25,31.418,21.418,35,17,35z M23,8c0-3.314-2.686-6-6-6h-2c-3.314,0-6,2.686-6,6v19c0,3.314,2.686,6,6,6h2
		c3.314,0,6-2.686,6-6V8z"/>
</g>
<g id="Layer_1">
</g>
</svg>
