<?xml version="1.0" encoding="iso-8859-1"?>
<!-- Generator: Adobe Illustrator 18.1.1, SVG Export Plug-In . SVG Version: 6.00 Build 0)  -->
<svg version="1.1" xmlns="http://www.w3.org/2000/svg" xmlns:xlink="http://www.w3.org/1999/xlink" x="0px" y="0px"
	 viewBox="0 0 40.006 36.808" style="enable-background:new 0 0 40.006 36.808;" xml:space="preserve">
<g id="Layer_1_1_">
	<path style="fill-rule:evenodd;clip-rule:evenodd;fill:none;" d="M36.003,17.897c-2.207,0-4.003-1.79-4.003-3.99
		c0-2.201,1.796-3.991,4.003-3.991c2.207,0,4.002,1.79,4.002,3.991C40.006,16.107,38.21,17.897,36.003,17.897z M36.005,11.914
		c-1.104,0-2.002,0.894-2.002,1.993c0,1.098,0.898,1.991,2.002,1.991c1.104,0,2.002-0.893,2.002-1.991
		C38.007,12.808,37.109,11.914,36.005,11.914z M35.012,8.903L35,1c0-0.553,0.448-1,1-1s1,0.447,1,1l0.013,7.904
		c-0.311-0.048-0.635-0.023-0.96-0.023C35.692,8.88,35.356,8.844,35.012,8.903z M20.014,27.894c-2.2,0-3.99-1.79-3.99-3.99
		c0-2.201,1.79-3.99,3.99-3.99c2.2,0,3.99,1.79,3.99,3.99C24.004,26.104,22.215,27.894,20.014,27.894z M20.014,21.912
		c-1.098,0-1.992,0.893-1.992,1.992c0,1.099,0.894,1.992,1.992,1.992c1.098,0,1.992-0.893,1.992-1.992
		C22.006,22.805,21.112,21.912,20.014,21.912z M19.012,18.904L19,1c0-0.553,0.448-1,1-1c0.552,0,1,0.447,1,1l0.013,17.905
		c-0.311-0.05-0.635-0.037-0.96-0.037C19.692,18.868,19.356,18.844,19.012,18.904z M4.003,20.915C1.795,20.915,0,19.119,0,16.913
		c0-2.208,1.795-4.003,4.003-4.003c2.207,0,4.002,1.795,4.002,4.003C8.005,19.119,6.209,20.915,4.003,20.915z M4.004,14.908
		c-1.104,0-2.002,0.9-2.002,2.003c0,1.104,0.898,2.001,2.002,2.001c1.104,0,2.002-0.898,2.002-2.001
		C6.006,15.808,5.108,14.908,4.004,14.908z M3.012,11.904L3,1c0-0.553,0.448-1,1-1c0.552,0,1,0.447,1,1l0.013,10.904
		c-0.311-0.048-0.676,0-1,0C3.652,11.904,3.356,11.844,3.012,11.904z M5.012,21.904v14c0,0.552-0.46,0.904-1.013,0.904
		c-0.552,0-0.987-0.352-0.987-0.904v-14c0.344,0.061,0.639,0,1,0C4.336,21.904,4.701,21.953,5.012,21.904z M21.012,28.904L21,35.808
		c0,0.553-0.448,1-1,1c-0.552,0-1-0.448-1-1l0.012-6.904c0.344,0.061,0.64,0,1,0C20.336,28.904,20.701,28.952,21.012,28.904z
		 M37.012,18.904v17c0,0.552-0.46,0.904-1.013,0.904s-1-0.448-1-1V18.944c0.343,0.06,0.652-0.039,1.013-0.039
		C36.336,18.904,36.701,18.953,37.012,18.904z"/>
</g>
<g id="Layer_1">
</g>
</svg>
