<?xml version="1.0" encoding="iso-8859-1"?>
<!-- Generator: Adobe Illustrator 18.1.1, SVG Export Plug-In . SVG Version: 6.00 Build 0)  -->
<svg version="1.1" xmlns="http://www.w3.org/2000/svg" xmlns:xlink="http://www.w3.org/1999/xlink" x="0px" y="0px"
	 viewBox="0 0 27.985 28" style="enable-background:new 0 0 27.985 28;" xml:space="preserve">
<g id="Layer_1_1_">
	<path style="fill-rule:evenodd;clip-rule:evenodd;fill:none;" d="M12.175,8.314c0.409-0.406,1.073-0.406,1.483,0.001l5.036,4.979
		c0.41,0.406,0.41,1.065,0.001,1.471c-0.409,0.406-1.073,0.406-1.483-0.001l-5.036-4.979C11.766,9.379,11.766,8.72,12.175,8.314z"/>
	<path style="fill-rule:evenodd;clip-rule:evenodd;fill:none;" d="M27.985,14c0,7.732-6.265,14-13.993,14S0,21.732,0,14
		C0,6.268,6.265,0,13.993,0S27.985,6.268,27.985,14z M1.999,14c0,6.627,5.37,12,11.994,12c6.624,0,11.994-5.373,11.994-12
		S20.617,2,13.993,2C7.369,2,1.999,7.373,1.999,14z"/>
	<path style="fill-rule:evenodd;clip-rule:evenodd;fill:none;" d="M18.681,13.292c0.409,0.406,0.412,1.061,0.007,1.464l-5.026,4.969
		c-0.406,0.403-1.067,0.4-1.476-0.007c-0.41-0.406-0.412-1.062-0.007-1.464l5.026-4.969C17.61,12.883,18.271,12.886,18.681,13.292z"
		/>
	<path style="fill-rule:evenodd;clip-rule:evenodd;fill:none;" d="M1.015,14.03c0.001-0.575,0.471-1.042,1.049-1.043l14.754-0.019
		c0.579-0.001,1.047,0.465,1.046,1.04c-0.001,0.575-0.471,1.042-1.049,1.043L2.061,15.069C1.483,15.07,1.014,14.605,1.015,14.03z"/>
</g>
<g id="Layer_1">
</g>
</svg>
