<?xml version="1.0" encoding="iso-8859-1"?>
<!-- Generator: Adobe Illustrator 18.1.1, SVG Export Plug-In . SVG Version: 6.00 Build 0)  -->
<svg version="1.1" xmlns="http://www.w3.org/2000/svg" xmlns:xlink="http://www.w3.org/1999/xlink" x="0px" y="0px"
	 viewBox="0 0 27.985 28" style="enable-background:new 0 0 27.985 28;" xml:space="preserve">
<g id="Layer_1_1_">
	<path style="fill-rule:evenodd;clip-rule:evenodd;" d="M25.986,28H1.999C0.895,28,0,27.105,0,26V10V8V6V2c0-1.105,0.895-2,1.999-2
		h9.995c1.104,0,1.999,0.895,1.999,2v2h11.994c1.104,0,1.999,0.895,1.999,2v4v16C27.985,27.105,27.09,28,25.986,28z M24.987,6
		h-1.999H11.994V5V4V3c0-0.552-0.447-1-1-1H2.998C2.447,2,1.999,2.448,1.999,3v1v1v1v2h20.989h1.999c0.552,0,0.999-0.448,0.999-1
		S25.539,6,24.987,6z M25.986,12v-1v-1h-0.999H2.998H1.999v1v1v13c0,0.552,0.448,1,0.999,1h21.989c0.552,0,0.999-0.448,0.999-1V12z"
		/>
</g>
<g id="Layer_1">
</g>
</svg>
