<?xml version="1.0" encoding="iso-8859-1"?>
<!-- Generator: Adobe Illustrator 18.1.1, SVG Export Plug-In . SVG Version: 6.00 Build 0)  -->
<svg version="1.1" xmlns="http://www.w3.org/2000/svg" xmlns:xlink="http://www.w3.org/1999/xlink" x="0px" y="0px"
	 viewBox="0 0 18 18" style="enable-background:new 0 0 18 18;" xml:space="preserve">
<g id="Layer_1_1_">
	<path style="fill-rule:evenodd;clip-rule:evenodd;" d="M18,8c-0.002,0.547-0.458,0.998-1,1l-6.973-0.017
		c-0.019,0.001-0.035,0.011-0.053,0.011C9.426,8.997,8.984,8.555,8.987,8.008L9,1c0.002-0.547,0.453-0.998,1-1
		c0.547-0.002,1.002,0.453,1,1l-0.021,4.61l4.471-4.334c0.36-0.355,0.942-0.358,1.3-0.004c0.358,0.353,0.351,0.847-0.009,1.202
		L12.272,7H17C17.542,6.998,18.002,7.454,18,8z M8.991,10.048L9,17c-0.002,0.542-0.453,0.998-1,1c-0.547,0.003-1.002-0.458-1-1
		l0.006-4.72l-4.542,4.439c-0.355,0.359-0.847,0.366-1.199,0.009c-0.352-0.357-0.35-0.938,0.004-1.298l4.343-4.439L1,11
		c-0.548,0.002-1.002-0.453-1-1c0.002-0.546,0.452-0.998,1-1l7.015,0.008c0.548-0.002,0.99,0.439,0.988,0.985
		C9.003,10.013,8.993,10.029,8.991,10.048z"/>
</g>
<g id="Layer_1">
</g>
</svg>
