<?xml version="1.0" encoding="UTF-8" standalone="no"?>
<svg width="33px" height="8px" viewBox="0 0 33 8" version="1.1" xmlns="http://www.w3.org/2000/svg" xmlns:xlink="http://www.w3.org/1999/xlink" xmlns:sketch="http://www.bohemiancoding.com/sketch/ns">
    <!-- Generator: Sketch 3.2.2 (9983) - http://www.bohemiancoding.com/sketch -->
    <title>more</title>
    <desc>Created with Sketch.</desc>
    <defs></defs>
    <g id="Page-1" stroke="none" stroke-width="1" fill="none" fill-rule="evenodd" sketch:type="MSPage">
        <path d="M4.51833733,8 C6.72747632,8 8.51833733,6.209139 8.51833733,4 C8.51833733,1.790861 6.72747632,0 4.51833733,0 C2.30919833,0 0.518337325,1.790861 0.518337325,4 C0.518337325,6.209139 2.30919833,8 4.51833733,8 Z M4.51833733,6 C5.62290682,6 6.51833733,5.1045695 6.51833733,4 C6.51833733,2.8954305 5.62290682,2 4.51833733,2 C3.41376783,2 2.51833733,2.8954305 2.51833733,4 C2.51833733,5.1045695 3.41376783,6 4.51833733,6 Z M16.5183373,8 C18.7274763,8 20.5183373,6.209139 20.5183373,4 C20.5183373,1.790861 18.7274763,0 16.5183373,0 C14.3091983,0 12.5183373,1.790861 12.5183373,4 C12.5183373,6.209139 14.3091983,8 16.5183373,8 Z M16.5183373,6 C17.6229068,6 18.5183373,5.1045695 18.5183373,4 C18.5183373,2.8954305 17.6229068,2 16.5183373,2 C15.4137678,2 14.5183373,2.8954305 14.5183373,4 C14.5183373,5.1045695 15.4137678,6 16.5183373,6 Z M28.5183373,8 C30.7274763,8 32.5183373,6.209139 32.5183373,4 C32.5183373,1.790861 30.7274763,0 28.5183373,0 C26.3091983,0 24.5183373,1.790861 24.5183373,4 C24.5183373,6.209139 26.3091983,8 28.5183373,8 Z M28.5183373,6 C29.6229068,6 30.5183373,5.1045695 30.5183373,4 C30.5183373,2.8954305 29.6229068,2 28.5183373,2 C27.4137678,2 26.5183373,2.8954305 26.5183373,4 C26.5183373,5.1045695 27.4137678,6 28.5183373,6 Z" id="more" fill="#FF0000" sketch:type="MSShapeGroup"></path>
    </g>
</svg>