<?xml version="1.0" encoding="UTF-8" standalone="no"?>
<svg width="116px" height="58px" viewBox="0 0 116 58" version="1.1" xmlns="http://www.w3.org/2000/svg" xmlns:xlink="http://www.w3.org/1999/xlink" xmlns:sketch="http://www.bohemiancoding.com/sketch/ns">
    <!-- Generator: Sketch 3.2.2 (9983) - http://www.bohemiancoding.com/sketch -->
    <title>more_mob</title>
    <desc>Created with Sketch.</desc>
    <defs></defs>
    <g id="Page-1" stroke="none" stroke-width="1" fill="none" fill-rule="evenodd" sketch:type="MSPage">
        <path d="M0.837695783,8.00375705 C0.837695783,3.58340409 4.42143125,0 8.832969,0 L107.842423,0 C112.25809,0 115.837696,3.58438948 115.837696,8.00375705 L115.837696,49.996243 C115.837696,54.4165959 112.25396,58 107.842423,58 L8.832969,58 C4.41730153,58 0.837695783,54.4156105 0.837695783,49.996243 L0.837695783,8.00375705 Z M2.83769578,7.99825958 C2.83769578,4.68551229 5.52653167,2 8.84489465,2 L107.830497,2 C111.148181,2 113.837696,4.6778684 113.837696,7.99825958 L113.837696,50.0017404 C113.837696,53.3144877 111.14886,56 107.830497,56 L8.84489465,56 C5.52721033,56 2.83769578,53.3221316 2.83769578,50.0017404 L2.83769578,7.99825958 Z M33.8376958,37 C38.2559738,37 41.8376958,33.418278 41.8376958,29 C41.8376958,24.581722 38.2559738,21 33.8376958,21 C29.4194178,21 25.8376958,24.581722 25.8376958,29 C25.8376958,33.418278 29.4194178,37 33.8376958,37 Z M33.8376958,35 C37.1514043,35 39.8376958,32.3137085 39.8376958,29 C39.8376958,25.6862915 37.1514043,23 33.8376958,23 C30.5239873,23 27.8376958,25.6862915 27.8376958,29 C27.8376958,32.3137085 30.5239873,35 33.8376958,35 Z M57.8376958,37 C62.2559738,37 65.8376958,33.418278 65.8376958,29 C65.8376958,24.581722 62.2559738,21 57.8376958,21 C53.4194178,21 49.8376958,24.581722 49.8376958,29 C49.8376958,33.418278 53.4194178,37 57.8376958,37 Z M57.8376958,35 C61.1514043,35 63.8376958,32.3137085 63.8376958,29 C63.8376958,25.6862915 61.1514043,23 57.8376958,23 C54.5239873,23 51.8376958,25.6862915 51.8376958,29 C51.8376958,32.3137085 54.5239873,35 57.8376958,35 Z M81.8376958,37 C86.2559738,37 89.8376958,33.418278 89.8376958,29 C89.8376958,24.581722 86.2559738,21 81.8376958,21 C77.4194178,21 73.8376958,24.581722 73.8376958,29 C73.8376958,33.418278 77.4194178,37 81.8376958,37 Z M81.8376958,35 C85.1514043,35 87.8376958,32.3137085 87.8376958,29 C87.8376958,25.6862915 85.1514043,23 81.8376958,23 C78.5239873,23 75.8376958,25.6862915 75.8376958,29 C75.8376958,32.3137085 78.5239873,35 81.8376958,35 Z" id="more_mob" fill="#FF0000" sketch:type="MSShapeGroup"></path>
    </g>
</svg>