<?xml version="1.0" encoding="iso-8859-1"?>
<!-- Generator: Adobe Illustrator 18.1.1, SVG Export Plug-In . SVG Version: 6.00 Build 0)  -->
<svg version="1.1" xmlns="http://www.w3.org/2000/svg" xmlns:xlink="http://www.w3.org/1999/xlink" x="0px" y="0px"
	 viewBox="0 0 70 56" style="enable-background:new 0 0 70 56;" xml:space="preserve">
<g id="Layer_1_1_">
	<path style="fill-rule:evenodd;clip-rule:evenodd;fill:#ED1E24;" d="M56,52c0,2.209-1.791,4-4,4H4c-2.209,0-4-1.791-4-4V12
		c0-2.209,1.791-4,4-4h24V4c0-2.209,1.791-4,4-4h20c2.209,0,4,1.791,4,4v6h10c2.209,0,4,1.791,4,4L56,52z M54,4c0-1.105-0.895-2-2-2
		H32c-1.105,0-2,0.895-2,2v6H4c-1.105,0-2,0.896-2,2v40c0,1.104,0.895,2,2,2h48c1.105,0,2-0.896,2-2V12v-1V4z M66,12H56v34.572
		L68,14C68,12.895,67.105,12,66,12z"/>
</g>
<g id="Layer_1">
</g>
</svg>
