<?xml version="1.0" encoding="UTF-8" standalone="no"?>
<svg width="154px" height="154px" viewBox="0 0 154 154" version="1.1" xmlns="http://www.w3.org/2000/svg" xmlns:xlink="http://www.w3.org/1999/xlink" xmlns:sketch="http://www.bohemiancoding.com/sketch/ns">
    <!-- Generator: Sketch 3.2.2 (9983) - http://www.bohemiancoding.com/sketch -->
    <title>play_mob</title>
    <desc>Created with Sketch.</desc>
    <defs></defs>
    <g id="Page-1" stroke="none" stroke-width="1" fill="none" fill-rule="evenodd" sketch:type="MSPage">
        <path d="M77,154 C119.525926,154 154,119.525926 154,77 C154,34.4740743 119.525926,0 77,0 C34.4740743,0 0,34.4740743 0,77 C0,119.525926 34.4740743,154 77,154 Z M77,149.833333 C117.224739,149.833333 149.833333,117.224739 149.833333,77 C149.833333,36.7752607 117.224739,4.16666667 77,4.16666667 C36.7752607,4.16666667 4.16666667,36.7752607 4.16666667,77 C4.16666667,117.224739 36.7752607,149.833333 77,149.833333 Z M61,50.0172119 L61,108 L106,78.9316012 L61,50.0172119 Z" id="play_mob" fill="#FF0000" sketch:type="MSShapeGroup"></path>
    </g>
</svg>