<?xml version="1.0" encoding="iso-8859-1"?>
<!-- Generator: Adobe Illustrator 18.1.1, SVG Export Plug-In . SVG Version: 6.00 Build 0)  -->
<svg version="1.1" xmlns="http://www.w3.org/2000/svg" xmlns:xlink="http://www.w3.org/1999/xlink" x="0px" y="0px"
	 viewBox="0 0 28 28" style="enable-background:new 0 0 28 28;" xml:space="preserve">
<g id="Layer_1_1_">
	<path style="fill-rule:evenodd;clip-rule:evenodd;fill:none;" d="M22.982,24.734C22.984,24.823,23,24.91,23,25h-0.358
		c-2.381,1.873-5.377,3-8.642,3s-6.261-1.127-8.642-3H5c0-0.09,0.016-0.177,0.018-0.266C1.952,22.166,0,18.312,0,14
		C0,6.268,6.268,0,14,0c7.732,0,14,6.268,14,14C28,18.312,26.047,22.166,22.982,24.734z M20.893,23.813
		c-0.424-2.468-2.137-4.493-4.425-5.357c-1.586-0.734-3.028-0.721-4.937,0c-2.288,0.864-4.001,2.889-4.425,5.357
		C9.058,25.187,11.432,26,14,26S18.942,25.187,20.893,23.813z M18,13c0-2.209-1.791-4-4-4c-2.209,0-4,1.791-4,4
		c0,1.37,0.69,2.577,1.74,3.298C12.463,16.11,13.218,16,14,16c0.782,0,1.537,0.11,2.26,0.298C17.31,15.577,18,14.37,18,13z M14,2
		C7.372,2,2,7.373,2,14c0,3.255,1.301,6.202,3.404,8.364c0.69-2.249,2.228-4.127,4.251-5.245C8.635,16.044,8,14.599,8,13
		c0-3.314,2.686-6,6-6c3.314,0,6,2.686,6,6c0,1.599-0.636,3.044-1.656,4.119c2.024,1.118,3.561,2.996,4.251,5.244
		C24.699,20.202,26,17.255,26,14C26,7.373,20.627,2,14,2z"/>
</g>
<g id="Layer_1">
</g>
</svg>
