<?xml version="1.0" encoding="UTF-8" standalone="no"?>
<svg width="28px" height="28px" viewBox="0 0 28 28" version="1.1" xmlns="http://www.w3.org/2000/svg" xmlns:xlink="http://www.w3.org/1999/xlink" xmlns:sketch="http://www.bohemiancoding.com/sketch/ns">
    <!-- Generator: Sketch 3.2.2 (9983) - http://www.bohemiancoding.com/sketch -->
    <title>remove</title>
    <desc>Created with Sketch.</desc>
    <defs></defs>
    <g id="Page-1" stroke="none" stroke-width="1" fill="none" fill-rule="evenodd" sketch:type="MSPage">
        <path d="M14.0046387,28 C21.7366252,28 28.0046387,21.7319865 28.0046387,14 C28.0046387,6.2680135 21.7366252,0 14.0046387,0 C6.27265217,0 0.00463867188,6.2680135 0.00463867188,14 C0.00463867188,21.7319865 6.27265217,28 14.0046387,28 Z M14.0046387,26 C20.6320557,26 26.0046387,20.627417 26.0046387,14 C26.0046387,7.372583 20.6320557,2 14.0046387,2 C7.37722167,2 2.00463867,7.372583 2.00463867,14 C2.00463867,20.627417 7.37722167,26 14.0046387,26 Z M8.00463867,14 C8.00463867,13.4477153 8.46039963,13 9.00711197,13 L19.0021654,13 C19.5558161,13 20.0046387,13.4438648 20.0046387,14 C20.0046387,14.5522847 19.5488777,15 19.0021654,15 L9.00711197,15 C8.45346125,15 8.00463867,14.5561352 8.00463867,14 Z" id="remove" fill="#FF0000" sketch:type="MSShapeGroup"></path>
    </g>
</svg>