<?xml version="1.0" encoding="UTF-8" standalone="no"?>
<svg width="28px" height="28px" viewBox="0 0 28 28" version="1.1" xmlns="http://www.w3.org/2000/svg" xmlns:xlink="http://www.w3.org/1999/xlink" xmlns:sketch="http://www.bohemiancoding.com/sketch/ns">
    <!-- Generator: Sketch 3.2.2 (9983) - http://www.bohemiancoding.com/sketch -->
    <title>reprocess</title>
    <desc>Created with Sketch.</desc>
    <defs></defs>
    <g id="Page-1" stroke="none" stroke-width="1" fill="none" fill-rule="evenodd" sketch:type="MSPage">
        <path d="M9.39010644,11.037156 L10.7584438,12.4054934 C11.1759897,12.8230393 11.1752907,13.4881297 10.7646442,13.8987762 C10.3511348,14.3122856 9.68543226,14.3066467 9.27136141,13.8925758 L6.35114615,10.9723606 C6.11087755,10.732092 6.00909827,10.4098564 6.04422735,10.101301 L6.04422735,10.101301 C6.00168616,9.7885807 6.10100611,9.4617312 6.34074095,9.22199636 L9.46372882,6.09900849 C9.87212513,5.69061218 10.53596,5.69256683 10.9466064,6.10321331 C11.3601159,6.51672273 11.3591355,7.1777667 10.9508112,7.58609092 L9.49974617,9.03715599 L22.0494276,9.03715599 L22.0494276,11.037156 L9.39010644,11.037156 Z M18.6939757,18.037156 L17.3256383,19.4054934 C16.9080925,19.8230393 16.9087915,20.4881297 17.3194379,20.8987762 C17.7329474,21.3122856 18.3986499,21.3066467 18.8127208,20.8925758 L21.732936,17.9723606 C21.9732046,17.732092 22.0749839,17.4098564 22.0398548,17.101301 L22.0398548,17.101301 C22.082396,16.7885807 21.9830761,16.4617312 21.7433412,16.2219964 L18.6203533,13.0990085 C18.211957,12.6906122 17.5481222,12.6925668 17.1374757,13.1032133 C16.7239663,13.5167227 16.7249467,14.1777667 17.1332709,14.5860909 L18.584336,16.037156 L6.03465456,16.037156 L6.03465456,18.037156 L18.6939757,18.037156 L18.6939757,18.037156 Z M14,28 C21.7319865,28 28,21.7319865 28,14 C28,6.2680135 21.7319865,0 14,0 C6.2680135,0 0,6.2680135 0,14 C0,21.7319865 6.2680135,28 14,28 Z M14,26 C20.627417,26 26,20.627417 26,14 C26,7.372583 20.627417,2 14,2 C7.372583,2 2,7.372583 2,14 C2,20.627417 7.372583,26 14,26 Z" id="reprocess" fill="#FF0000" sketch:type="MSShapeGroup"></path>
    </g>
</svg>