<?xml version="1.0" encoding="UTF-8" standalone="no"?>
<svg width="38px" height="39px" viewBox="0 0 38 39" version="1.1" xmlns="http://www.w3.org/2000/svg" xmlns:xlink="http://www.w3.org/1999/xlink" xmlns:sketch="http://www.bohemiancoding.com/sketch/ns">
    <!-- Generator: Sketch 3.2.2 (9983) - http://www.bohemiancoding.com/sketch -->
    <title>search_mob</title>
    <desc>Created with Sketch.</desc>
    <defs></defs>
    <g id="Page-1" stroke="none" stroke-width="1" fill="none" fill-rule="evenodd" sketch:type="MSPage">
        <path d="M26.7294838,28.4208081 C23.977144,30.6586469 20.4666472,32 16.6428606,32 C7.80630456,32 0.642860555,24.836556 0.642860555,16 C0.642860555,7.163444 7.80630456,0 16.6428606,0 C25.4794166,0 32.6428606,7.163444 32.6428606,16 C32.6428606,20.333284 30.920238,24.264228 28.1224352,27.1453898 L36.5553858,35.5783405 C37.3366051,36.3595597 37.3674837,37.5851081 36.6306338,38.3219581 L37.9648186,36.9877733 C37.2664664,37.6861254 35.9996093,37.6909335 35.221201,36.9125253 L26.7294838,28.4208081 Z M25.5309724,26.256258 C23.149845,28.3215447 20.0423155,29.5714263 16.6428606,29.5714263 C9.14756878,29.5714263 3.07143426,23.4952918 3.07143426,16 C3.07143426,8.50470822 9.14756878,2.4285737 16.6428606,2.4285737 C24.1381523,2.4285737 30.2142869,8.50470822 30.2142869,16 C30.2142869,19.9365165 28.5382852,23.4815817 25.860926,25.9605518 C25.9490178,25.719335 26.0886884,25.494753 26.2802434,25.303198 L24.9460586,26.6373828 C25.1132728,26.4701686 25.3130806,26.3427167 25.5309724,26.256258 Z" id="search_mob" fill="#FF0000" sketch:type="MSShapeGroup"></path>
    </g>
</svg>