<?xml version="1.0" encoding="UTF-8" standalone="no"?>
<svg width="29px" height="29px" viewBox="0 0 29 29" version="1.1" xmlns="http://www.w3.org/2000/svg" xmlns:xlink="http://www.w3.org/1999/xlink" xmlns:sketch="http://www.bohemiancoding.com/sketch/ns">
    <!-- Generator: Sketch 3.2.2 (9983) - http://www.bohemiancoding.com/sketch -->
    <title>search</title>
    <desc>Created with Sketch.</desc>
    <defs></defs>
    <g id="Page-1" stroke="none" stroke-width="1" fill="none" fill-rule="evenodd" sketch:type="MSPage">
        <path d="M19.9167212,21.0182739 C17.8039165,22.8744798 15.0333979,24 12,24 C5.372583,24 0,18.627417 0,12 C0,5.372583 5.372583,0 12,0 C18.627417,0 24,5.372583 24,12 C24,14.9147713 22.9607895,17.586822 21.2326688,19.6658519 L27.0999423,25.5331254 C27.8888838,26.3220668 27.9210024,27.5488553 27.1841525,28.2857052 L28.5183373,26.9515204 C27.8199851,27.6498726 26.5491154,27.6506681 25.7657575,26.8673102 L19.9167212,21.0182739 Z M19.0468171,19.0952361 C17.2391218,20.8906722 14.7491096,22 12,22 C6.4771525,22 2,17.5228475 2,12 C2,6.4771525 6.4771525,2 12,2 C17.5228475,2 22,6.4771525 22,12 C22,14.6426208 20.974949,17.045828 19.3007658,18.8337031 C18.8974357,18.8806053 18.5174267,19.0493903 18.2326321,19.3341848 L19.5668169,18 C19.2632644,18.3035526 19.0902142,18.690253 19.0468171,19.0952361 Z" id="search" fill="#FF0000" sketch:type="MSShapeGroup"></path>
    </g>
</svg>