<?xml version="1.0" encoding="iso-8859-1"?>
<!-- Generator: Adobe Illustrator 18.1.1, SVG Export Plug-In . SVG Version: 6.00 Build 0)  -->
<svg version="1.1" xmlns="http://www.w3.org/2000/svg" xmlns:xlink="http://www.w3.org/1999/xlink" x="0px" y="0px"
	 viewBox="0 0 28 28" style="enable-background:new 0 0 28 28;" xml:space="preserve">
<g id="Layer_1_1_">
	<path style="fill-rule:evenodd;clip-rule:evenodd;fill:none;" d="M25,28H3c-1.657,0-3-1.343-3-3V3c0-1.657,1.343-3,3-3h22
		c1.657,0,3,1.343,3,3v22C28,26.657,26.657,28,25,28z M26,3c0-0.552-0.448-1-1-1H3C2.448,2,2,2.448,2,3v22c0,0.552,0.448,1,1,1h22
		c0.552,0,1-0.448,1-1V3z M22,21H10v1H8v-1H6c-0.552,0-1-0.448-1-1c0-0.552,0.448-1,1-1h2v-1h2v1h12c0.552,0,1,0.448,1,1
		C23,20.552,22.552,21,22,21z M22,15h-2v1h-2v-1H6c-0.552,0-1-0.448-1-1s0.448-1,1-1h12v-1h2v1h2c0.552,0,1,0.448,1,1
		S22.552,15,22,15z M22,9h-7v1h-2V9H6C5.448,9,5,8.552,5,8s0.448-1,1-1h7V6h2v1h7c0.552,0,1,0.448,1,1S22.552,9,22,9z"/>
	<path style="fill-rule:evenodd;clip-rule:evenodd;fill:none;" d="M14,5c0.552,0,1,0.448,1,1v4c0,0.552-0.448,1-1,1s-1-0.448-1-1V6
		C13,5.448,13.448,5,14,5z"/>
	<path style="fill-rule:evenodd;clip-rule:evenodd;fill:none;" d="M19,11c0.552,0,1,0.448,1,1v4c0,0.552-0.448,1-1,1s-1-0.448-1-1
		v-4C18,11.448,18.448,11,19,11z"/>
	<path style="fill-rule:evenodd;clip-rule:evenodd;fill:none;" d="M9,17c0.552,0,1,0.448,1,1v4c0,0.552-0.448,1-1,1s-1-0.448-1-1v-4
		C8,17.448,8.448,17,9,17z"/>
</g>
<g id="Layer_1">
</g>
</svg>
