<?xml version="1.0" encoding="UTF-8" standalone="no"?>
<svg width="28px" height="28px" viewBox="0 0 28 28" version="1.1" xmlns="http://www.w3.org/2000/svg" xmlns:xlink="http://www.w3.org/1999/xlink" xmlns:sketch="http://www.bohemiancoding.com/sketch/ns">
    <!-- Generator: Sketch 3.2.2 (9983) - http://www.bohemiancoding.com/sketch -->
    <title>share</title>
    <desc>Created with Sketch.</desc>
    <defs></defs>
    <g id="Page-1" stroke="none" stroke-width="1" fill="none" fill-rule="evenodd" sketch:type="MSPage">
        <path d="M15.5310821,11.9098637 L16,12.3787816 L16,12.3787816 L16,11.9098637 L15.5310821,11.9098637 Z M14.5857864,11.9098637 L5.15893933,21.3367108 L6.57315289,22.7509244 L9.15270025,20.171377 L16,13.3240773 L16,19.0139077 C16,19.5430623 16.4336377,19.9727498 16.968557,19.9727498 C17.5072056,19.9727498 17.9371139,19.5434616 17.9371139,19.0139077 L17.9371139,10.9315918 C17.9371139,10.6686162 17.8300131,10.4302073 17.656606,10.2568973 C17.4798844,10.0789422 17.2414616,9.97274977 16.9782719,9.97274977 L8.89595596,9.97274977 C8.36680142,9.97274977 7.93711392,10.4063875 7.93711392,10.9413067 C7.93711392,11.4799553 8.36640212,11.9098637 8.89595596,11.9098637 L14.5857864,11.9098637 Z M14,28 C21.7319865,28 28,21.7319865 28,14 C28,6.2680135 21.7319865,0 14,0 C6.2680135,0 0,6.2680135 0,14 C0,21.7319865 6.2680135,28 14,28 Z M14,26 C20.627417,26 26,20.627417 26,14 C26,7.372583 20.627417,2 14,2 C7.372583,2 2,7.372583 2,14 C2,20.627417 7.372583,26 14,26 Z" id="share" fill="#FF0000" sketch:type="MSShapeGroup"></path>
    </g>
</svg>