<?xml version="1.0" encoding="utf-8"?>
<!-- Generator: Adobe Illustrator 15.0.0, SVG Export Plug-In . SVG Version: 6.00 Build 0)  -->
<!DOCTYPE svg PUBLIC "-//W3C//DTD SVG 1.1//EN" "http://www.w3.org/Graphics/SVG/1.1/DTD/svg11.dtd">
<svg version="1.1" id="Layer_1" xmlns="http://www.w3.org/2000/svg" xmlns:xlink="http://www.w3.org/1999/xlink" x="0px" y="0px"
	 width="40px" height="40px" viewBox="0 0 40 40" enable-background="new 0 0 40 40" xml:space="preserve">
<path fill-rule="evenodd" clip-rule="evenodd" fill="none" d="M34.07,34.07c-7.817,7.816-20.491,7.816-28.309,0
	c-7.817-7.817-7.817-20.491,0-28.308c7.817-7.817,20.491-7.817,28.309,0C41.887,13.579,41.887,26.253,34.07,34.07z M30.986,33.008
	l-4.095-4.096c-4.11,3.189-9.853,3.191-13.958,0.009l-4.09,4.09C15.222,38.414,24.607,38.412,30.986,33.008z M13.85,25.982
	c3.35,3.35,8.782,3.35,12.133,0c3.35-3.351,3.35-8.783,0-12.133c-3.351-3.35-8.783-3.35-12.133,0S10.5,22.632,13.85,25.982z
	 M6.821,30.989l4.09-4.09c-3.183-4.107-3.182-9.849,0.007-13.959L6.824,8.846C1.419,15.226,1.417,24.61,6.821,30.989z M8.846,6.824
	l4.095,4.095c4.11-3.189,9.852-3.19,13.959-0.007l4.09-4.09C24.61,1.417,15.226,1.419,8.846,6.824z M33.011,8.844l-4.09,4.09
	c3.183,4.105,3.182,9.848-0.009,13.958l4.096,4.095C38.412,24.607,38.414,15.222,33.011,8.844z"/>
</svg>
